<svg width="60" height="60" viewBox="0 0 60 60" fill="none" xmlns="http://www.w3.org/2000/svg">
<rect width="60" height="60" rx="12" fill="#003366"/>
<path d="M31.4498 18.3122L30.6476 18.7874C29.7663 19.3092 29.3257 19.5702 28.8403 19.6309C28.3549 19.6917 27.8797 19.5455 26.9293 19.253L26.0641 18.9868C22.7195 17.9576 21.0472 17.443 20.042 18.363C19.0368 19.2831 19.3644 21.0284 20.0195 24.5191L20.189 25.4222C20.3752 26.4142 20.4683 26.9101 20.3579 27.3947C20.2474 27.8792 19.946 28.2974 19.3432 29.1339L18.7943 29.8954C16.6729 32.8389 15.6122 34.3106 16.1296 35.5308C16.6471 36.7509 18.4001 36.9113 21.906 37.2322L22.8131 37.3152C23.8094 37.4064 24.3075 37.452 24.7247 37.6907C25.1418 37.9294 25.4307 38.3341 26.0086 39.1435L26.5346 39.8804C28.568 42.7288 29.5848 44.1529 30.9098 43.987C32.2348 43.821 32.9906 42.1748 34.5023 38.8825L34.8934 38.0307C35.1129 37.5525 35.2764 37.1966 35.4329 36.9178L41.8575 43.3425C42.2676 43.7525 42.9324 43.7525 43.3425 43.3425C43.7525 42.9324 43.7525 42.2676 43.3425 41.8575L37.138 35.6531C37.3088 35.5909 37.4995 35.5241 37.7142 35.4489L38.5881 35.1429C41.9663 33.9598 43.6554 33.3682 43.9568 32.0455C44.2582 30.7228 42.9724 29.545 40.4007 27.1893L39.7354 26.5798C39.0046 25.9104 38.6392 25.5757 38.4496 25.1287C38.26 24.6818 38.2678 24.1732 38.2832 23.156L38.2973 22.2299C38.3517 18.6503 38.3789 16.8605 37.2402 16.209C36.1014 15.5575 34.5509 16.4758 31.4498 18.3122Z" fill="#FBFBFB"/>
</svg>
