<svg width="22" height="22" viewBox="0 0 22 22" fill="none" xmlns="http://www.w3.org/2000/svg">
<path d="M10.4472 1.32903C10.6517 0.83734 11.3483 0.837341 11.5528 1.32903L14.0336 7.29367C14.1198 7.50096 14.3148 7.64259 14.5385 7.66053L20.9779 8.17677C21.5087 8.21932 21.7239 8.88177 21.3195 9.22821L16.4134 13.4308C16.2429 13.5768 16.1685 13.806 16.2206 14.0244L17.7194 20.3081C17.843 20.8261 17.2795 21.2355 16.825 20.9579L11.3121 17.5906C11.1205 17.4736 10.8795 17.4736 10.6879 17.5906L5.17497 20.9579C4.72051 21.2355 4.157 20.8261 4.28056 20.3081L5.77945 14.0244C5.83154 13.806 5.75708 13.5768 5.58658 13.4308L0.680491 9.22821C0.276059 8.88177 0.491302 8.21932 1.02213 8.17677L7.46146 7.66053C7.68524 7.64259 7.88018 7.50096 7.96639 7.29367L10.4472 1.32903Z" fill="#F4DC00"/>
</svg>
