<svg width="24" height="25" viewBox="0 0 24 25" fill="none" xmlns="http://www.w3.org/2000/svg">
<path fill-rule="evenodd" clip-rule="evenodd" d="M9.21591 6.375L17.5682 6.375C17.7159 6.375 17.8575 6.43366 17.9619 6.53809C18.0663 6.64251 18.125 6.78414 18.125 6.93182V15.2841C18.125 15.5916 17.8757 15.8409 17.5682 15.8409C17.2607 15.8409 17.0114 15.5916 17.0114 15.2841V8.2761L6.82555 18.4619C6.6081 18.6794 6.25554 18.6794 6.03809 18.4619C5.82064 18.2445 5.82064 17.8919 6.03809 17.6745L16.2239 7.48864L9.21591 7.48864C8.90839 7.48864 8.65909 7.23934 8.65909 6.93182C8.65909 6.6243 8.90839 6.375 9.21591 6.375Z" fill="#FBFBFB"/>
</svg>
